<?xml version="1.0" encoding="UTF-8"?>
<svg width="512pt" height="512pt" viewBox="-82 0 512 512" version="1.1" xmlns="http://www.w3.org/2000/svg" xmlns:xlink="http://www.w3.org/1999/xlink">
    <path d="m330.34 3.0117h-65.641c-9.293 0-16.824 7.5312-16.824 16.824v230.13l-19.004 6.2266v-44.461c0-5.3477-4.0352-10.02-9.375-10.367-5.8477-0.37891-10.711 4.2539-10.711 10.023v51.387l-24.102 7.8984v-22.789c0-5.3477-4.0391-10.02-9.375-10.363-5.8516-0.37891-10.711 4.2539-10.711 10.02v29.711l-7.0664 2.3164c-13.293 4.3555-22.281 16.758-22.281 30.746v184.38c0 9.5547 7.7461 17.301 17.305 17.301h177.3c9.5586 0 17.305-7.7461 17.305-17.301v-474.86c0.003906-9.2891-7.5273-16.82-16.816-16.82z"
          fill="#87afb9"/>
    <path d="m234.28 206.71c0 9.1094-7.3828 16.492-16.492 16.492-9.1055 0-16.492-7.3828-16.492-16.492 0-9.1055 7.3867-16.492 16.492-16.492 9.1094 0 16.492 7.3867 16.492 16.492z"
          fill="#e64937"/>
    <path d="m120.38 185.43c-3.2305 0-6.4375-0.74609-9.3594-2.207l-70.676-35.262c-10.359-5.168-14.566-17.758-9.3984-28.117 5.168-10.359 17.754-14.566 28.113-9.3984l64.207 32.035 64.172-13.121c11.34-2.3203 22.414 4.9961 24.734 16.34 2.3203 11.34-4.9961 22.418-16.34 24.734l-71.254 14.57c-1.3906 0.28516-2.7969 0.42578-4.1992 0.42578z"
          fill="#f0a48b"/>
    <path d="m85.41 512c-13.328 0-24.129-10.805-24.129-24.133v-229.46c0-13.332 10.805-24.133 24.129-24.133 13.328 0 24.133 10.801 24.133 24.133v229.46c0 13.328-10.805 24.133-24.133 24.133z"
          fill="#414b82"/>
    <path d="m24.133 512c-13.328 0-24.133-10.805-24.133-24.133v-229.46c0-13.332 10.805-24.133 24.133-24.133 13.324 0 24.129 10.801 24.129 24.133v229.46c0.003906 13.328-10.801 24.133-24.129 24.133z"
          fill="#5f6e9b"/>
    <path d="m0 296.8h109.54v-165.4c0-17.102-12.965-30.969-28.953-30.969h-51.637c-15.988 0-28.953 13.867-28.953 30.969z"
          fill="#64afff"/>
    <path d="m126.88 45.781c0 25.281-20.496 45.777-45.777 45.777-25.285 0-45.781-20.496-45.781-45.777 0-25.285 20.496-45.781 45.781-45.781 25.281 0 45.777 20.496 45.777 45.781z"
          fill="#ffb69e"/>
    <path d="m158.77 250.35-71.324-35.273c-3.1484-1.5547-5.8555-3.8789-7.8711-6.7539l-15.59-22.238 3.8516-31.469 30.406 7.3047 12.586 17.949 66.523 32.898c10.379 5.1328 14.629 17.707 9.5 28.086-5.1094 10.328-17.66 14.652-28.082 9.4961z"
          fill="#ffb69e"/>
    <path d="m98.242 161.92-31.379-44.754c-6.6445-9.4766-19.719-11.777-29.195-5.1289-9.4805 6.6484-11.777 19.719-5.1289 29.199l31.445 44.848z"
          fill="#4699f2"/>
</svg>
